<mxfile host="app.diagrams.net" agent="Mozilla/5.0 (Windows NT 10.0; Win64; x64) AppleWebKit/537.36 (KHTML, like Gecko) Chrome/141.0.0.0 Safari/537.36 Edg/141.0.0.0" version="28.2.7">
  <diagram name="Страница — 1" id="b1xMm4KM-DdfFZmb72XF">
    <mxGraphModel dx="2168" dy="1738" grid="1" gridSize="10" guides="1" tooltips="1" connect="1" arrows="1" fold="1" page="0" pageScale="1" pageWidth="827" pageHeight="1169" background="#FFFFFF" math="0" shadow="0">
      <root>
        <mxCell id="0" />
        <mxCell id="1" parent="0" />
        <mxCell id="k6Mywv08BmqzuOuJ6cEs-6" value="" style="ellipse;whiteSpace=wrap;html=1;" vertex="1" parent="1">
          <mxGeometry x="-890" y="-255" width="120" height="80" as="geometry" />
        </mxCell>
        <mxCell id="k6Mywv08BmqzuOuJ6cEs-1" value="" style="rounded=1;whiteSpace=wrap;html=1;fillColor=#647687;strokeColor=#314354;fontColor=#ffffff;" vertex="1" parent="1">
          <mxGeometry x="-1060" y="-420" width="620" height="370" as="geometry" />
        </mxCell>
        <mxCell id="k6Mywv08BmqzuOuJ6cEs-2" value="" style="rounded=1;whiteSpace=wrap;html=1;" vertex="1" parent="1">
          <mxGeometry x="-1020" y="-390" width="540" height="310" as="geometry" />
        </mxCell>
        <mxCell id="k6Mywv08BmqzuOuJ6cEs-3" value="Добро пожаловать!" style="text;html=1;whiteSpace=wrap;strokeColor=none;fillColor=none;align=center;verticalAlign=middle;rounded=0;" vertex="1" parent="1">
          <mxGeometry x="-830" y="-330" width="160" height="30" as="geometry" />
        </mxCell>
        <mxCell id="k6Mywv08BmqzuOuJ6cEs-7" value="" style="ellipse;whiteSpace=wrap;html=1;fillColor=#f0a30a;fontColor=#000000;strokeColor=#BD7000;" vertex="1" parent="1">
          <mxGeometry x="-890" y="-255" width="120" height="80" as="geometry" />
        </mxCell>
        <mxCell id="k6Mywv08BmqzuOuJ6cEs-4" value="Зарегестрироваться" style="text;html=1;whiteSpace=wrap;strokeColor=none;fillColor=none;align=center;verticalAlign=middle;rounded=0;" vertex="1" parent="1">
          <mxGeometry x="-870" y="-230" width="80" height="30" as="geometry" />
        </mxCell>
        <mxCell id="k6Mywv08BmqzuOuJ6cEs-8" value="" style="ellipse;whiteSpace=wrap;html=1;fillColor=#f0a30a;fontColor=#000000;strokeColor=#BD7000;" vertex="1" parent="1">
          <mxGeometry x="-700" y="-255" width="120" height="80" as="geometry" />
        </mxCell>
        <mxCell id="k6Mywv08BmqzuOuJ6cEs-5" value="Войти" style="text;html=1;whiteSpace=wrap;align=center;verticalAlign=middle;rounded=0;" vertex="1" parent="1">
          <mxGeometry x="-680" y="-230" width="80" height="30" as="geometry" />
        </mxCell>
        <mxCell id="k6Mywv08BmqzuOuJ6cEs-10" value="" style="rounded=1;whiteSpace=wrap;html=1;fillColor=#647687;strokeColor=#314354;fontColor=#ffffff;" vertex="1" parent="1">
          <mxGeometry x="-260" y="-420" width="620" height="370" as="geometry" />
        </mxCell>
        <mxCell id="k6Mywv08BmqzuOuJ6cEs-11" value="&lt;span style=&quot;color: rgba(0, 0, 0, 0); font-family: monospace; font-size: 0px; text-align: start; text-wrap-mode: nowrap;&quot;&gt;%3CmxGraphModel%3E%3Croot%3E%3CmxCell%20id%3D%220%22%2F%3E%3CmxCell%20id%3D%221%22%20parent%3D%220%22%2F%3E%3CmxCell%20id%3D%222%22%20value%3D%22%22%20style%3D%22rounded%3D1%3BwhiteSpace%3Dwrap%3Bhtml%3D1%3B%22%20vertex%3D%221%22%20parent%3D%221%22%3E%3CmxGeometry%20x%3D%22-120%22%20y%3D%22-250%22%20width%3D%22140%22%20height%3D%2220%22%20as%3D%22geometry%22%2F%3E%3C%2FmxCell%3E%3C%2Froot%3E%3C%2FmxGraphModel%3E&lt;/span&gt;" style="rounded=1;whiteSpace=wrap;html=1;" vertex="1" parent="1">
          <mxGeometry x="-220" y="-390" width="540" height="310" as="geometry" />
        </mxCell>
        <mxCell id="k6Mywv08BmqzuOuJ6cEs-12" value="Введите следующие данные для регистрации:" style="text;html=1;whiteSpace=wrap;strokeColor=none;fillColor=none;align=center;verticalAlign=middle;rounded=0;" vertex="1" parent="1">
          <mxGeometry x="-92.5" y="-330" width="285" height="30" as="geometry" />
        </mxCell>
        <mxCell id="k6Mywv08BmqzuOuJ6cEs-14" value="" style="rounded=1;whiteSpace=wrap;html=1;fillColor=#1ba1e2;fontColor=#ffffff;strokeColor=#006EAF;" vertex="1" parent="1">
          <mxGeometry x="-120" y="-250" width="140" height="20" as="geometry" />
        </mxCell>
        <mxCell id="k6Mywv08BmqzuOuJ6cEs-15" value="" style="rounded=1;whiteSpace=wrap;html=1;fillColor=#1ba1e2;fontColor=#ffffff;strokeColor=#006EAF;" vertex="1" parent="1">
          <mxGeometry x="-120" y="-225" width="140" height="20" as="geometry" />
        </mxCell>
        <mxCell id="k6Mywv08BmqzuOuJ6cEs-16" value="" style="rounded=1;whiteSpace=wrap;html=1;fillColor=#1ba1e2;fontColor=#ffffff;strokeColor=#006EAF;" vertex="1" parent="1">
          <mxGeometry x="-120" y="-195" width="140" height="20" as="geometry" />
        </mxCell>
        <mxCell id="k6Mywv08BmqzuOuJ6cEs-13" value="&lt;div&gt;Ваш логин - _________&lt;/div&gt;&lt;div&gt;&lt;br&gt;&lt;/div&gt;&lt;div&gt;Введите пароль - ____&lt;/div&gt;&lt;div&gt;&lt;br&gt;&lt;/div&gt;&lt;div&gt;Введите Еmail - _____&amp;nbsp;&lt;/div&gt;" style="text;html=1;whiteSpace=wrap;strokeColor=none;fillColor=none;align=left;verticalAlign=middle;rounded=0;" vertex="1" parent="1">
          <mxGeometry x="-120" y="-260" width="135" height="90" as="geometry" />
        </mxCell>
        <mxCell id="k6Mywv08BmqzuOuJ6cEs-18" value="" style="rounded=0;whiteSpace=wrap;html=1;" vertex="1" parent="1">
          <mxGeometry x="100" y="-265" width="120" height="60" as="geometry" />
        </mxCell>
        <mxCell id="k6Mywv08BmqzuOuJ6cEs-17" value="" style="rounded=0;whiteSpace=wrap;html=1;" vertex="1" parent="1">
          <mxGeometry x="110" y="-245" width="20" height="20" as="geometry" />
        </mxCell>
        <mxCell id="k6Mywv08BmqzuOuJ6cEs-19" value="&lt;div style=&quot;&quot;&gt;&lt;span style=&quot;background-color: transparent; color: light-dark(rgb(0, 0, 0), rgb(255, 255, 255));&quot;&gt;Подтвердите что вы не робот&lt;/span&gt;&lt;/div&gt;" style="text;html=1;whiteSpace=wrap;strokeColor=none;fillColor=none;align=center;verticalAlign=middle;rounded=0;" vertex="1" parent="1">
          <mxGeometry x="130" y="-257.5" width="90" height="45" as="geometry" />
        </mxCell>
        <mxCell id="k6Mywv08BmqzuOuJ6cEs-20" value="" style="rounded=1;whiteSpace=wrap;html=1;fillColor=#647687;strokeColor=#314354;fontColor=#ffffff;" vertex="1" parent="1">
          <mxGeometry x="-1060" y="-920" width="620" height="370" as="geometry" />
        </mxCell>
        <mxCell id="k6Mywv08BmqzuOuJ6cEs-21" value="&lt;span style=&quot;color: rgba(0, 0, 0, 0); font-family: monospace; font-size: 0px; text-align: start; text-wrap-mode: nowrap;&quot;&gt;%3CmxGraphModel%3E%3Croot%3E%3CmxCell%20id%3D%220%22%2F%3E%3CmxCell%20id%3D%221%22%20parent%3D%220%22%2F%3E%3CmxCell%20id%3D%222%22%20value%3D%22%22%20style%3D%22rounded%3D1%3BwhiteSpace%3Dwrap%3Bhtml%3D1%3B%22%20vertex%3D%221%22%20parent%3D%221%22%3E%3CmxGeometry%20x%3D%22-120%22%20y%3D%22-250%22%20width%3D%22140%22%20height%3D%2220%22%20as%3D%22geometry%22%2F%3E%3C%2FmxCell%3E%3C%2Froot%3E%3C%2FmxGraphModel%3E&lt;/span&gt;" style="rounded=1;whiteSpace=wrap;html=1;" vertex="1" parent="1">
          <mxGeometry x="-1020" y="-890" width="540" height="310" as="geometry" />
        </mxCell>
        <mxCell id="k6Mywv08BmqzuOuJ6cEs-22" value="Введите следующие данные для входа:" style="text;html=1;whiteSpace=wrap;strokeColor=none;fillColor=none;align=center;verticalAlign=middle;rounded=0;" vertex="1" parent="1">
          <mxGeometry x="-900" y="-840" width="300" height="30" as="geometry" />
        </mxCell>
        <mxCell id="k6Mywv08BmqzuOuJ6cEs-24" value="" style="rounded=1;whiteSpace=wrap;html=1;fillColor=#0050ef;fontColor=#ffffff;strokeColor=#001DBC;" vertex="1" parent="1">
          <mxGeometry x="-840" y="-770" width="180" height="70" as="geometry" />
        </mxCell>
        <mxCell id="k6Mywv08BmqzuOuJ6cEs-23" value="Введите логин - ___________&lt;div&gt;&lt;br&gt;&lt;div&gt;Введите пароль - __________&lt;/div&gt;&lt;/div&gt;" style="text;html=1;whiteSpace=wrap;strokeColor=none;fillColor=none;align=left;verticalAlign=middle;rounded=0;" vertex="1" parent="1">
          <mxGeometry x="-835" y="-790" width="170" height="110" as="geometry" />
        </mxCell>
      </root>
    </mxGraphModel>
  </diagram>
</mxfile>
